<?xml version="1.0" standalone="no"?>
<!DOCTYPE svg PUBLIC "-//W3C//DTD SVG 20010904//EN"
 "http://www.w3.org/TR/2001/REC-SVG-20010904/DTD/svg10.dtd">
<svg version="1.0" xmlns="http://www.w3.org/2000/svg"
 width="837.000000pt" height="689.000000pt" viewBox="0 0 837.000000 689.000000"
 preserveAspectRatio="xMidYMid meet">

<g transform="translate(0.000000,689.000000) scale(0.100000,-0.100000)"
fill="#000000" stroke="none">
<path d="M1188 4572 c-91 -87 -318 -336 -358 -393 l-21 -29 153 0 153 0 80
105 c44 58 85 105 91 105 7 0 47 -47 90 -105 l78 -105 154 0 c177 0 169 -14
67 111 -68 84 -360 385 -382 393 -9 4 -49 -27 -105 -82z"/>
<path d="M5814 4651 c-52 -13 -94 -44 -114 -86 -39 -81 -17 -158 58 -206 42
-27 53 -30 104 -26 68 6 110 32 138 87 36 71 22 141 -40 193 -26 22 -92 49
-110 46 -3 -1 -19 -4 -36 -8z"/>
<path d="M3870 4285 c0 -201 -2 -365 -5 -365 -3 0 -38 27 -78 61 -79 67 -198
129 -293 153 -92 24 -247 31 -359 17 -330 -42 -582 -235 -671 -515 -26 -83
-47 -247 -39 -309 15 -112 30 -178 56 -240 94 -234 273 -387 528 -454 82 -22
118 -26 251 -26 118 -1 171 3 220 16 106 29 240 101 313 167 36 33 68 60 71
60 3 0 7 -46 8 -102 l3 -103 143 -3 142 -3 0 1006 0 1005 -145 0 -145 0 0
-365z m-384 -390 c142 -36 259 -124 321 -240 110 -208 72 -506 -85 -660 -155
-154 -488 -195 -719 -90 -180 82 -276 245 -277 469 -1 165 36 273 127 372 60
66 106 97 194 130 119 45 305 53 439 19z"/>
<path d="M7045 4164 c-181 -27 -349 -106 -449 -213 -17 -17 -33 -31 -38 -31
-4 0 -8 47 -8 105 l0 105 -140 0 -140 0 2 -1002 3 -1003 138 -3 137 -3 0 371
c0 203 3 370 6 370 3 0 37 -29 75 -64 132 -122 312 -186 524 -186 348 0 628
152 763 415 64 126 76 183 76 365 -1 152 -3 171 -28 245 -45 131 -83 192 -181
290 -108 109 -219 172 -373 211 -95 24 -291 39 -367 28z m231 -253 c200 -38
344 -158 399 -332 21 -66 25 -100 25 -193 0 -169 -38 -273 -136 -376 -181
-190 -593 -214 -815 -48 -76 57 -132 136 -165 233 -22 66 -26 98 -27 185 0
120 12 179 53 266 66 138 193 228 374 264 58 11 234 12 292 1z"/>
<path d="M4462 3388 l3 -743 137 -3 138 -3 2 628 3 628 350 5 350 5 0 110 0
110 -493 3 -492 2 2 -742z"/>
<path d="M5712 3388 l3 -743 135 0 135 0 3 743 2 742 -140 0 -140 0 2 -742z"/>
<path d="M742 3922 c-34 -10 -89 -69 -102 -108 -22 -66 18 -142 92 -174 26
-11 53 -20 60 -20 37 0 89 24 121 55 116 113 -8 293 -171 247z"/>
<path d="M1205 3907 c-42 -24 -85 -86 -85 -125 0 -36 27 -92 58 -119 24 -21
79 -43 107 -43 28 0 83 22 107 43 66 57 72 148 15 210 -54 60 -133 73 -202 34z"/>
<path d="M1708 3916 c-42 -18 -74 -53 -88 -96 -35 -105 72 -216 187 -194 48 9
110 66 123 113 18 69 -17 141 -83 172 -47 21 -99 23 -139 5z"/>
<path d="M473 3404 c-8 -21 4 -132 23 -206 80 -311 375 -554 712 -586 239 -23
494 69 660 238 37 37 78 82 91 99 28 38 89 160 103 205 15 51 38 188 38 229
l0 38 -117 -3 -117 -3 -16 -95 c-23 -135 -60 -211 -147 -303 -58 -60 -77 -75
-152 -113 -88 -45 -167 -64 -271 -64 -99 0 -158 14 -255 61 -84 40 -206 156
-248 236 -27 51 -66 201 -67 256 l0 27 -115 0 c-96 0 -117 -3 -122 -16z"/>
</g>
</svg>
